<svg viewBox="0 0 12 12" xmlns="http://www.w3.org/2000/svg" xmlns:xlink="http://www.w3.org/1999/xlink" width="12.000000" height="12.000000" fill="none" customFrame="#000000">
	<rect id="Frame 1511838849" width="12.000000" height="12.000000" x="0.000000" y="0.000000" />
	<g id="vuesax/bold/edit-2">
		<g id="edit-2">
			<path id="Vector" d="M10.5 11L1.5 11C1.295 11 1.125 10.83 1.125 10.625C1.125 10.42 1.295 10.25 1.5 10.25L10.5 10.25C10.705 10.25 10.875 10.42 10.875 10.625C10.875 10.83 10.705 11 10.5 11Z" fill="rgb(153,153,153)" fill-rule="nonzero" />
			<path id="Vector" d="M9.51004 1.74002C8.54004 0.770018 7.59004 0.745018 6.59504 1.74002L5.99004 2.34502C5.94004 2.39502 5.92004 2.47502 5.94004 2.54502C6.32004 3.87002 7.38004 4.93002 8.70504 5.31002C8.72504 5.31502 8.74504 5.32002 8.76504 5.32002C8.82004 5.32002 8.87004 5.30002 8.91004 5.26002L9.51004 4.65502C10.005 4.16502 10.245 3.69002 10.245 3.21002C10.25 2.71502 10.01 2.23502 9.51004 1.74002Z" fill="rgb(153,153,153)" fill-rule="nonzero" />
			<path id="Vector" d="M7.80491 5.76502C7.65991 5.69502 7.51992 5.62502 7.38492 5.54502C7.27492 5.48002 7.16992 5.41002 7.06492 5.33502C6.97992 5.28002 6.87991 5.20002 6.78491 5.12002C6.77491 5.11502 6.73991 5.08502 6.69991 5.04502C6.53491 4.90502 6.34992 4.72502 6.18492 4.52502C6.16992 4.51502 6.14492 4.48002 6.10992 4.43502C6.05992 4.37502 5.97492 4.27502 5.89992 4.16002C5.83992 4.08502 5.76992 3.97502 5.70492 3.86502C5.62492 3.73002 5.55492 3.59502 5.48492 3.45502C5.39314 3.25835 5.13501 3.19993 4.98154 3.35339L2.16992 6.16502C2.10492 6.23002 2.04492 6.35502 2.02992 6.44002L1.75992 8.35502C1.70992 8.69502 1.80492 9.01502 2.01492 9.23002C2.19492 9.40502 2.44492 9.50002 2.71492 9.50002C2.77492 9.50002 2.83492 9.49502 2.89492 9.48502L4.81492 9.21502C4.90491 9.20002 5.02992 9.14002 5.08992 9.07502L7.90618 6.25876C8.05658 6.10836 8.00007 5.84959 7.80491 5.76502Z" fill="rgb(153,153,153)" fill-rule="nonzero" />
			<path id="Vector" opacity="0" transform="matrix(-1,-1.22465e-16,1.22465e-16,-1,12,12)" />
		</g>
	</g>
</svg>
