<svg viewBox="0 0 14 14" xmlns="http://www.w3.org/2000/svg" xmlns:xlink="http://www.w3.org/1999/xlink" width="14.000000" height="14.000000" fill="none" customFrame="#000000">
	<g id="bag">
		<path id="Vector" d="M11.2232 3.25507L10.9898 3.25507L9.01817 1.28341C8.86067 1.12591 8.604 1.12591 8.44067 1.28341C8.28317 1.44091 8.28317 1.69757 8.44067 1.86091L9.83484 3.25507L4.16484 3.25507L5.559 1.86091C5.7165 1.70341 5.7165 1.44674 5.559 1.28341C5.4015 1.12591 5.14484 1.12591 4.9815 1.28341L3.01567 3.25507L2.78234 3.25507C2.25734 3.25507 1.1665 3.25507 1.1665 4.74841C1.1665 5.31424 1.28317 5.68757 1.52817 5.93257C1.66817 6.07841 1.83734 6.15424 2.01817 6.19507C2.18734 6.23591 2.36817 6.24174 2.54317 6.24174L11.4565 6.24174C11.6373 6.24174 11.8065 6.23007 11.9698 6.19507C12.4598 6.07841 12.8332 5.72841 12.8332 4.74841C12.8332 3.25507 11.7423 3.25507 11.2232 3.25507Z" fill="rgb(0,0,0)" fill-rule="nonzero" />
		<path id="Vector" d="M11.1124 7L2.84072 7C2.47905 7 2.20489 7.32083 2.26322 7.67667L2.75322 10.675C2.91655 11.6783 3.35405 12.8333 5.29655 12.8333L8.56905 12.8333C10.5349 12.8333 10.8849 11.8475 11.0949 10.745L11.6841 7.69417C11.7541 7.3325 11.4799 7 11.1124 7ZM6.18905 10.7625C6.18905 10.99 6.00822 11.1708 5.78655 11.1708C5.55905 11.1708 5.37822 10.99 5.37822 10.7625L5.37822 8.8375C5.37822 8.61583 5.55905 8.42917 5.78655 8.42917C6.00822 8.42917 6.18905 8.61583 6.18905 8.8375L6.18905 10.7625ZM8.68572 10.7625C8.68572 10.99 8.50489 11.1708 8.27739 11.1708C8.05572 11.1708 7.86905 10.99 7.86905 10.7625L7.86905 8.8375C7.86905 8.61583 8.05572 8.42917 8.27739 8.42917C8.50489 8.42917 8.68572 8.61583 8.68572 8.8375L8.68572 10.7625Z" fill="rgb(0,0,0)" fill-rule="nonzero" />
		<path id="Vector" opacity="0" transform="matrix(-1,-1.22465e-16,1.22465e-16,-1,14,14)" />
	</g>
</svg>
