<svg viewBox="0 0 14 14" xmlns="http://www.w3.org/2000/svg" xmlns:xlink="http://www.w3.org/1999/xlink" width="14.000000" height="14.000000" fill="none" customFrame="#000000">
	<g id="house">
		<path id="Vector" opacity="0" />
		<path id="Vector" d="M12.8332 12.3958L12.2498 12.3958L12.2498 5.82167C12.2498 5.46 12.0865 5.12167 11.8007 4.9L11.0832 4.34L11.0715 2.91084C11.0715 2.59 10.809 2.33334 10.4882 2.33334L8.499 2.33334L7.71734 1.72667C7.29734 1.39417 6.70234 1.39417 6.28234 1.72667L2.199 4.9C1.91317 5.12167 1.74984 5.46 1.74984 5.81584L1.72067 12.3958L1.1665 12.3958C0.927337 12.3958 0.729004 12.5942 0.729004 12.8333C0.729004 13.0725 0.927337 13.2708 1.1665 13.2708L12.8332 13.2708C13.0723 13.2708 13.2707 13.0725 13.2707 12.8333C13.2707 12.5942 13.0723 12.3958 12.8332 12.3958ZM3.7915 7.4375L3.7915 6.5625C3.7915 6.24167 4.054 5.97917 4.37484 5.97917L5.5415 5.97917C5.86234 5.97917 6.12484 6.24167 6.12484 6.5625L6.12484 7.4375C6.12484 7.75834 5.86234 8.02084 5.5415 8.02084L4.37484 8.02084C4.054 8.02084 3.7915 7.75834 3.7915 7.4375ZM8.45817 12.3958L5.5415 12.3958L5.5415 10.7917C5.5415 10.3075 5.93234 9.91667 6.4165 9.91667L7.58317 9.91667C8.06734 9.91667 8.45817 10.3075 8.45817 10.7917L8.45817 12.3958ZM10.2082 7.4375C10.2082 7.75834 9.94567 8.02084 9.62484 8.02084L8.45817 8.02084C8.13734 8.02084 7.87484 7.75834 7.87484 7.4375L7.87484 6.5625C7.87484 6.24167 8.13734 5.97917 8.45817 5.97917L9.62484 5.97917C9.94567 5.97917 10.2082 6.24167 10.2082 6.5625L10.2082 7.4375Z" fill="rgb(0,0,0)" fill-rule="nonzero" />
	</g>
</svg>
