<svg viewBox="0 0 14 14" xmlns="http://www.w3.org/2000/svg" xmlns:xlink="http://www.w3.org/1999/xlink" width="14.000000" height="14.000000" fill="none" customFrame="#000000">
	<g id="message-text">
		<path id="Vector" opacity="0" />
		<path id="Vector" d="M9.33317 1.16663L4.6665 1.16663C2.33317 1.16663 1.1665 2.33329 1.1665 4.66663L1.1665 12.25C1.1665 12.5708 1.429 12.8333 1.74984 12.8333L9.33317 12.8333C11.6665 12.8333 12.8332 11.6666 12.8332 9.33329L12.8332 4.66663C12.8332 2.33329 11.6665 1.16663 9.33317 1.16663ZM8.1665 8.89579L4.08317 8.89579C3.844 8.89579 3.64567 8.69746 3.64567 8.45829C3.64567 8.21913 3.844 8.02079 4.08317 8.02079L8.1665 8.02079C8.40567 8.02079 8.604 8.21913 8.604 8.45829C8.604 8.69746 8.40567 8.89579 8.1665 8.89579ZM9.9165 5.97913L4.08317 5.97913C3.844 5.97913 3.64567 5.78079 3.64567 5.54163C3.64567 5.30246 3.844 5.10413 4.08317 5.10413L9.9165 5.10413C10.1557 5.10413 10.354 5.30246 10.354 5.54163C10.354 5.78079 10.1557 5.97913 9.9165 5.97913Z" fill="rgb(0,0,0)" fill-rule="nonzero" />
	</g>
</svg>
