<svg viewBox="0 0 14 14" xmlns="http://www.w3.org/2000/svg" xmlns:xlink="http://www.w3.org/1999/xlink" width="14.000000" height="14.000000" fill="none" customFrame="#000000">
	<g id="car">
		<path id="Vector" d="M12.6875 4.66659C12.6875 4.90576 12.4892 5.10409 12.25 5.10409L1.75 5.10409C1.51083 5.10409 1.3125 4.90576 1.3125 4.66659C1.3125 4.42742 1.51083 4.22909 1.75 4.22909L2.345 4.22909L2.56667 3.17326C2.77667 2.15242 3.21417 1.21326 4.9525 1.21326L9.0475 1.21326C10.7858 1.21326 11.2233 2.15242 11.4333 3.17326L11.655 4.22909L12.25 4.22909C12.4892 4.22909 12.6875 4.42742 12.6875 4.66659Z" fill="rgb(0,0,0)" fill-rule="nonzero" />
		<path id="Vector" d="M12.9386 7.96829C12.8511 7.00579 12.5944 5.97913 10.7219 5.97913L3.27859 5.97913C1.40609 5.97913 1.15525 7.00579 1.06192 7.96829L0.735254 11.5208C0.69442 11.9641 0.840254 12.4075 1.14359 12.74C1.45275 13.0783 1.89025 13.2708 2.35692 13.2708L3.45359 13.2708C4.39859 13.2708 4.57942 12.7283 4.69609 12.3725L4.81275 12.0225C4.94692 11.62 4.98192 11.5208 5.50692 11.5208L8.49359 11.5208C9.01859 11.5208 9.03609 11.5791 9.18775 12.0225L9.30442 12.3725C9.42109 12.7283 9.60192 13.2708 10.5469 13.2708L11.6436 13.2708C12.1044 13.2708 12.5478 13.0783 12.8569 12.74C13.1603 12.4075 13.3061 11.9641 13.2653 11.5208L12.9386 7.96829ZM5.25025 9.18746L3.50025 9.18746C3.26109 9.18746 3.06275 8.98913 3.06275 8.74996C3.06275 8.51079 3.26109 8.31246 3.50025 8.31246L5.25025 8.31246C5.48942 8.31246 5.68775 8.51079 5.68775 8.74996C5.68775 8.98913 5.48942 9.18746 5.25025 9.18746ZM10.5003 9.18746L8.75025 9.18746C8.51109 9.18746 8.31275 8.98913 8.31275 8.74996C8.31275 8.51079 8.51109 8.31246 8.75025 8.31246L10.5003 8.31246C10.7394 8.31246 10.9378 8.51079 10.9378 8.74996C10.9378 8.98913 10.7394 9.18746 10.5003 9.18746Z" fill="rgb(0,0,0)" fill-rule="nonzero" />
		<path id="Vector" opacity="0" transform="matrix(-1,-1.22465e-16,1.22465e-16,-1,14,14)" />
	</g>
</svg>
